<?xml version="1.0" encoding="UTF-8"?>
<svg id="Layer_1" data-name="Layer 1" xmlns="http://www.w3.org/2000/svg" viewBox="0 0 209 415.8">
  <defs>
    <style>
      .cls-1 {
        fill: #9cd76b;
      }

      .cls-1, .cls-2, .cls-3 {
        stroke-width: 8px;
      }

      .cls-1, .cls-2, .cls-3, .cls-4, .cls-5 {
        stroke: #000;
        stroke-miterlimit: 10;
      }

      .cls-2 {
        fill: #5eb05b;
      }

      .cls-3 {
        fill: #478343;
      }

      .cls-4 {
        fill: none;
      }

      .cls-4, .cls-5 {
        stroke-width: 10px;
      }

      .cls-6, .cls-7, .cls-8, .cls-9 {
        stroke-width: 0px;
      }

      .cls-6, .cls-5 {
        fill: #ededed;
      }

      .cls-7 {
        fill: #c4c3c8;
      }

      .cls-8 {
        fill: #99684a;
      }

      .cls-9 {
        fill: #ce8a63;
      }
    </style>
  </defs>
  <g>
    <path class="cls-2" d="M98.84,320.78s-29.91-131.66,17.62-302.78c0,0,24.49,100.32,4.31,299.66"/>
    <path class="cls-3" d="M123.65,345.53s48.13-111.92,25.27-270.11c0,0-38.36,85.03-46.51,264.12"/>
    <path class="cls-1" d="M105.21,320.06S50.16,211.85,63.03,52.38c0,0,43.61,82.08,62.99,260.18"/>
    <path class="cls-3" d="M98,313.85s16-109.06-86-161.46c0,0,55,94.09,61,161.46"/>
    <path class="cls-2" d="M112.54,330.3s-16-109.06,86-161.46c0,0-55,94.09-61,161.46"/>
  </g>
  <g>
    <polyline class="cls-5" points="87.83 403.89 109.15 379.23 130.47 403.89"/>
    <polyline class="cls-9" points="68.08 415.8 68.08 379.23 87.83 379.23 87.83 415.8"/>
    <polygon class="cls-8" points="68.08 393.67 87.83 403.89 87.83 379.23 68.08 379.23 68.08 393.67"/>
    <polyline class="cls-4" points="68.08 415.8 68.08 379.23 87.83 379.23 87.83 415.8"/>
    <polyline class="cls-9" points="150.22 415.8 150.22 379.23 130.47 379.23 130.47 415.8"/>
    <polygon class="cls-8" points="130.47 393.67 150.22 403.89 150.22 379.23 130.47 379.23 130.47 393.67"/>
    <polyline class="cls-4" points="150.22 415.8 150.22 379.23 130.47 379.23 130.47 415.8"/>
  </g>
  <g>
    <path class="cls-7" d="M169.36,304.8l-12.73,67.57c-.75,3.97-4.23,6.85-8.27,6.85h-31.19c4.04,0,7.52-2.88,8.27-6.85l12.73-67.57c1.46-7.69-4.45-14.8-12.27-14.8h31.19c7.82,0,13.72,7.11,12.27,14.8Z"/>
    <path class="cls-6" d="M138.17,304.8l-12.73,67.57c-.75,3.97-4.23,6.85-8.27,6.85h-47.23c-4.04,0-7.52-2.88-8.27-6.85l-12.74-67.57c-1.45-7.69,4.45-14.8,12.27-14.8h64.71c7.82,0,13.72,7.11,12.27,14.8Z"/>
    <path class="cls-4" d="M169.36,304.8l-12.73,67.57c-.75,3.97-4.23,6.85-8.27,6.85h-78.42c-4.04,0-7.52-2.88-8.27-6.85l-12.74-67.57c-1.45-7.69,4.45-14.8,12.27-14.8h95.9c7.82,0,13.72,7.11,12.27,14.8Z"/>
  </g>
</svg>